PathFileType	4	(X/Y/Z)	c:\Git\powerlifing_model_clean\simulations\HC835B\Session1\HC835B_STD_0001\marker_experimental.trc
DataRate	CameraRate	NumFrames	NumMarkers	Units	OrigDataRate	OrigDataStartFrame	OrigNumFrames
240.000000	240.000000	4	48	mm	240.000000	294	337
Frame#	Time	RPSI			LPSI			RASI			LASI			RGT			RTH1			RTH2			RTH3			RTH4			RLK			RMK			RSK1			RSK2			RSK3			RSK4			RLA			RMA			RCAL1			RCAL2			RCAL3			RST			RPT			RTN			RFMB			RSMB			RVMB			RFMH			RSMH			RVMH			RPM			LGT			LTH1			LTH2			LTH3			LTH4			LLK			LMK			LSK1			LSK2			LSK3			LSK4			LLA			LMA			LCAL1			LCAL2			LCAL3			LFMH			LVMH			
		X1	Y1	Z1	X2	Y2	Z2	X3	Y3	Z3	X4	Y4	Z4	X5	Y5	Z5	X6	Y6	Z6	X7	Y7	Z7	X8	Y8	Z8	X9	Y9	Z9	X10	Y10	Z10	X11	Y11	Z11	X12	Y12	Z12	X13	Y13	Z13	X14	Y14	Z14	X15	Y15	Z15	X16	Y16	Z16	X17	Y17	Z17	X18	Y18	Z18	X19	Y19	Z19	X20	Y20	Z20	X21	Y21	Z21	X22	Y22	Z22	X23	Y23	Z23	X24	Y24	Z24	X25	Y25	Z25	X26	Y26	Z26	X27	Y27	Z27	X28	Y28	Z28	X29	Y29	Z29	X30	Y30	Z30	X31	Y31	Z31	X32	Y32	Z32	X33	Y33	Z33	X34	Y34	Z34	X35	Y35	Z35	X36	Y36	Z36	X37	Y37	Z37	X38	Y38	Z38	X39	Y39	Z39	X40	Y40	Z40	X41	Y41	Z41	X42	Y42	Z42	X43	Y43	Z43	X44	Y44	Z44	X45	Y45	Z45	X46	Y46	Z46	X47	Y47	Z47	X48	Y48	Z48	

295	1.225	495.4826049804689	1162.732543945313	-359.6369323730469	386.9551696777345	1160.19677734375	-356.0393676757813	555.3510131835939	1104.903076171875	-563.4317016601564	316.1130981445313	1100.573364257813	-560.9884643554689	637.5736083984376	1023.808471679688	-454.6080017089845	639.8689575195314	836.2293090820315	-464.7229309082032	627.8671264648439	819.0025634765627	-521.7944335937501	630.1566772460939	753.3749389648439	-479.2717895507814	606.9306030273439	736.9827880859376	-530.4887084960939	609.4379882812501	552.6441040039064	-460.1733703613282	483.7369995117189	538.6267089843751	-449.9264221191407	613.0754394531251	307.6687927246094	-362.1748352050782	615.0958862304689	287.9526977539063	-420.478240966797	611.4894409179689	249.8308715820313	-373.0592651367188	600.4672851562501	231.8134307861329	-429.0384216308595	605.3336181640626	114.8933563232422	-359.7590026855469	521.9917602539064	124.2480545043946	-404.6369934082032	560.2916870117189	95.85066223144533	-305.0305480957032	528.7266845703126	58.49172592163087	-314.5308227539063	592.8823242187501	59.13475036621095	-308.9166564941407	517.4036254882814	76.43780517578126	-380.8991699218751	618.2069091796876	72.32044219970705	-367.3171691894532	530.4641113281251	94.54753875732423	-438.6261596679689	537.0258178710939	78.12670898437501	-469.633758544922	586.2896118164064	101.7205276489258	-477.7007141113282	632.1510620117189	47.72300338745118	-410.3382263183595	537.2280883789064	50.63465881347658	-527.4888305664064	592.0288696289064	65.54066467285158	-537.7192993164064	648.3107299804689	42.22526550292969	-490.6113281250001	582.6557617187501	52.98561096191408	-597.0108032226564	245.0051879882813	1012.870727539063	-449.3098449707032	239.3990173339844	830.984313964844	-447.3391418457032	242.4256439208985	813.5065917968752	-505.4556579589845	243.3499908447266	746.2600708007814	-460.2512207031251	263.1535949707032	730.6613159179689	-516.0153198242189	265.7831115722657	564.1544799804689	-443.8061523437501	396.8072814941407	553.6117553710939	-444.9647827148439	257.6334228515626	300.6403808593751	-355.5476379394532	251.4199981689454	279.4461669921876	-404.0746459960939	257.3852539062501	245.2883300781251	-368.6639709472657	267.6015930175782	225.8447418212891	-420.752655029297	259.4559020996094	115.6309356689453	-363.5043029785157	349.4767456054688	123.8290252685547	-401.0604553222657	306.7383728027344	95.13401794433595	-303.5458374023438	275.8826904296876	58.54543304443361	-303.7010803222657	334.2479553222657	56.70236206054689	-308.1333312988282	344.6698608398438	55.05399322509767	-530.7412109375001	229.7025146484376	41.48274612426759	-493.0320129394532	
296	1.229166666666667	495.4998779296876	1162.7509765625	-359.6664123535157	386.9752197265626	1160.196899414063	-356.0773010253907	555.3609008789064	1104.917846679688	-563.4284667968751	316.1291198730469	1100.565185546875	-560.9869384765626	637.5579833984376	1023.806091308594	-454.6279907226564	639.8956909179689	836.2459106445315	-464.7375488281251	627.8640136718751	819.0413208007815	-521.8072509765626	630.1668701171876	753.3668823242189	-479.2911071777345	606.9492187500001	736.9909057617189	-530.4866943359376	609.4317016601564	552.6257934570314	-460.1760864257814	483.7460937500001	538.6442260742189	-449.9482421875001	613.0880737304689	307.6760559082032	-362.1832885742188	615.0953369140626	287.9621276855469	-420.4820251464845	611.4503173828126	249.8292999267579	-373.0621643066407	600.4570922851564	231.7888946533204	-429.0266723632814	605.3125000000001	114.90478515625	-359.7068176269532	521.9941406250001	124.2554779052735	-404.6602172851564	560.3082885742189	95.87240600585939	-305.0295410156251	528.7008056640626	58.48433685302736	-314.5445556640626	592.8839111328126	59.13417434692384	-308.9245300292969	517.4061889648439	76.39282226562501	-380.9131469726563	618.2117919921876	72.32772064208986	-367.3265380859376	530.4812622070314	94.55697631835939	-438.6474914550782	537.0413208007814	78.10694122314455	-469.659393310547	586.2973022460939	101.7219009399414	-477.6983642578126	632.1135864257814	47.71636962890626	-410.3404541015626	537.2971191406251	50.71434020996095	-527.5024414062501	592.0328979492189	65.52822113037111	-537.7414550781251	648.3011474609376	42.20390701293946	-490.6077270507814	582.6463012695314	52.98714828491212	-597.0064697265626	244.9939727783204	1012.859008789063	-449.3188476562501	239.3974914550782	830.9759521484377	-447.3402709960939	242.4269714355469	813.5059204101565	-505.4585571289064	243.3158721923829	746.2653808593751	-460.2252197265626	263.1506042480469	730.6818847656251	-516.0292968750001	265.7757568359376	564.1616821289064	-443.8057861328126	396.7973022460939	553.5947875976564	-444.9484252929689	257.7208862304688	300.5707397460938	-355.5649414062501	251.4346313476563	279.4038391113282	-404.0418395996095	257.3794250488282	245.265365600586	-368.6408691406251	267.6020507812501	225.8540191650391	-420.7393798828126	259.4619445800782	115.6131591796875	-363.5200500488282	349.4683227539063	123.8325576782227	-401.0743103027345	306.7491149902344	95.15172576904298	-303.5329284667969	275.8908081054688	58.54706954956056	-303.6889648437501	334.2317810058594	56.72253417968751	-308.1357116699219	344.6861572265626	55.05615997314455	-530.7629394531251	229.6916961669922	41.45917510986329	-493.0462341308595	
297	1.233333333333333	495.491912841797	1162.7470703125	-359.6601562500001	386.9554138183595	1160.199096679688	-356.0772399902344	555.4038085937501	1104.915405273438	-563.4514160156251	316.1424865722657	1100.550903320313	-560.9984741210939	637.5758056640626	1023.815490722656	-454.6383666992189	639.8638916015626	836.2402343750002	-464.7430114746095	627.9000244140626	819.021667480469	-521.8327636718751	630.1625366210939	753.3827514648439	-479.2975463867189	606.9552612304689	736.9999389648439	-530.5160522460939	609.4346923828126	552.6410522460939	-460.1828918457032	483.7575073242189	538.6398925781251	-449.9403076171876	613.0844726562501	307.6851196289063	-362.1705627441407	615.1180419921876	287.9632568359376	-420.5036926269532	611.4666748046876	249.8298034667969	-373.0865478515626	600.4589843750001	231.8083801269532	-429.0255432128907	605.2916259765626	114.8886108398438	-359.7212829589844	522.0114135742189	124.2546081542969	-404.6371459960939	560.2979125976564	95.84132385253908	-305.0316162109376	528.7076416015626	58.4721031188965	-314.5310058593751	592.8881835937501	59.13440704345705	-308.9225769042969	517.3948974609376	76.39400482177736	-380.8667602539063	618.2109375000001	72.31932830810548	-367.3135375976563	530.4638671875001	94.54569244384767	-438.6150207519532	537.0580444335939	78.10244750976564	-469.6692504882814	586.2811279296876	101.703125	-477.7059326171876	632.1699218750001	47.75991821289063	-410.3164978027345	537.2850341796876	50.58380126953126	-527.4615478515626	592.0408325195314	65.53101348876955	-537.7108764648439	648.3203125000001	42.20989990234376	-490.6158447265626	582.6697387695314	52.97070693969728	-597.0068969726564	245.0202789306641	1012.845092773438	-449.3494873046876	239.4127807617188	830.9910888671877	-447.3350830078126	242.4282531738282	813.4976196289065	-505.4532470703126	243.3455047607422	746.2627563476564	-460.2323303222657	263.1202087402344	730.6803588867189	-516.0029296875001	265.7822875976563	564.1770019531251	-443.784149169922	396.7766418457032	553.5791625976564	-444.9466247558595	257.6477355957032	300.5952148437501	-355.5507812500001	251.4299621582032	279.4395446777344	-404.0365295410157	257.3993835449219	245.2885742187501	-368.6502685546876	267.6055297851563	225.8203887939454	-420.7336730957032	259.4551086425782	115.5958862304688	-363.5332946777344	349.4736938476563	123.8372955322266	-401.0743408203126	306.7682495117188	95.17864990234376	-303.5059814453126	275.8961181640626	58.54399490356447	-303.6945800781251	334.2435913085938	56.69406890869142	-308.1432800292969	344.6782226562501	55.04982376098634	-530.7745361328126	229.6721649169922	41.43553161621094	-493.0338745117189	
298	1.2375	495.4839782714845	1162.742919921875	-359.6853942871094	386.977264404297	1160.199462890625	-356.0968933105469	555.3776245117189	1104.920288085938	-563.4694213867189	316.1171875000001	1100.5810546875	-561.0104980468751	637.5496215820314	1023.831298828125	-454.6749572753907	639.8536376953126	836.231872558594	-464.7683410644532	627.8671264648439	818.997985839844	-521.8405761718751	630.1737060546876	753.3580322265626	-479.3057250976564	606.9536132812501	736.9741821289064	-530.5374145507814	609.4279785156251	552.6331176757814	-460.1901855468751	483.7547607421876	538.6724853515626	-449.9537963867189	613.0726318359376	307.6704101562501	-362.1763916015626	615.1320190429689	287.9465332031251	-420.4854431152345	611.4741821289064	249.8353881835938	-373.0709838867188	600.4689331054689	231.8020935058594	-429.013641357422	605.3251342773439	115.0078277587891	-359.6044006347657	522.0065917968751	124.2581481933594	-404.6220703125001	560.2924804687501	95.83821105957033	-305.0316162109376	528.7224731445314	58.47834777832033	-314.5320434570313	592.8833618164064	59.15059280395509	-308.9153442382813	517.4158935546876	76.39058685302736	-380.8600769042969	618.2185058593751	72.31705474853517	-367.3323059082032	530.4901733398439	94.53414916992189	-438.6281738281251	537.0498657226564	78.1143035888672	-469.640106201172	586.2947998046876	101.7221984863282	-477.7041015625001	632.0961303710939	47.71221542358399	-410.3302001953126	537.3065795898439	50.57044601440431	-527.5025634765626	592.0178833007814	65.54360198974611	-537.7283935546876	648.3020629882814	42.19925689697266	-490.6160888671876	582.6630249023439	52.98743057250978	-597.0228271484376	245.0201873779297	1012.858276367188	-449.3201293945314	239.4079742431641	830.9873657226565	-447.3136596679689	242.4229278564454	813.510925292969	-505.4487915039064	243.3164672851563	746.3043823242189	-460.2302856445314	263.1281127929688	730.6693725585939	-515.9925537109376	265.7904357910157	564.1737670898439	-443.7773742675782	396.8132629394532	553.6094360351564	-444.9307861328126	257.6459045410157	300.6729125976563	-355.4891662597657	251.4278564453126	279.4086914062501	-404.0542297363282	257.3872070312501	245.2814178466797	-368.6294250488282	267.5831298828126	225.8108825683594	-420.7341918945314	259.4608459472657	115.6157531738282	-363.5091552734376	349.4652404785157	123.8702621459961	-401.0804138183595	306.7575073242188	95.16094207763673	-303.5188598632813	275.9132080078126	58.54293441772462	-303.6878356933594	334.2434997558594	56.71570968627931	-308.1345825195313	344.6994323730469	55.06743621826173	-530.7665405273439	229.7092437744141	41.45825195312501	-493.0379943847657	
